<svg xmlns="http://www.w3.org/2000/svg" width="24" height="24"><path color="#000" fill="#6e587e" overflow="visible" d="M0 0h24v24H0z"/><g transform="matrix(.947 0 0 .947 -.163 -973.471)" color="#000"><path d="M10.906 1030.518c-4.867 0-8.812 3.946-8.812 8.813 0 4.868 3.945 8.813 8.812 8.813 1.112 0 2.177-.218 3.156-.593-.886-.94-1.437-2.2-1.437-3.594v-.03h-.563l-2.124-4.47h-.344l-.53 2.97c-.002.427.096.75.248.936.153.186.37.25.688.25l-.03.313H5.405l.032-.313c.364 0 .664-.098.906-.312s.405-.504.468-.875L8 1035.8c0-.428-.1-.723-.25-.907-.15-.183-.362-.28-.688-.28l.032-.313H11.5c.644 0 1.25.094 1.813.25.562.155.994.393 1.28.75.262.332.376.74.376 1.218 0 .524-.17.986-.5 1.407-.518.63-1.24 1.072-2.19 1.28l1.095 2.126c.91-1.557 2.563-2.624 4.5-2.624.645 0 1.273.1 1.844.312-.166-4.722-4.052-8.5-8.814-8.5zm.063 4.25c-.387.06-.594.265-.658.594l-.624 3.625h.437c1.1 0 1.858-.354 2.22-1.094.246-.516.342-1.11.342-1.78 0-.23-.002-.395-.03-.47-.224-.576-.794-.875-1.688-.875z" fill="#fff" overflow="visible"/><path d="M21.067 1043.95a3.186 3.186 0 1 1-6.372 0 3.186 3.186 0 1 1 6.372 0z" fill="none" stroke="#fff" stroke-width="1.9540160000000002" overflow="visible"/><rect width="1.852" height="6.021" ry=".926" x="-726.949" y="752.978" transform="rotate(-45)" fill="#fff" overflow="visible"/></g></svg>