<svg xmlns="http://www.w3.org/2000/svg" width="24" height="24"><g transform="translate(0 -1028.362)" color="#000"><path d="M10.906 1030.518a8.813 8.813 0 0 0 0 17.625 8.804 8.804 0 0 0 3.156-.593 5.22 5.22 0 0 1-1.437-3.594v-.031h-.563l-2.124-4.469h-.344l-.531 2.969c0 .428.097.752.25.937.152.186.369.25.687.25l-.031.313H5.406l.032-.313c.364 0 .664-.098.906-.312s.405-.504.468-.875L8 1035.8c0-.428-.101-.723-.25-.907-.149-.183-.362-.28-.688-.28l.032-.313H11.5c.644 0 1.25.094 1.813.25.562.155.994.393 1.28.75.262.332.376.741.376 1.218 0 .524-.168.986-.5 1.407-.517.63-1.24 1.072-2.188 1.281l1.094 2.125c.91-1.558 2.563-2.625 4.5-2.625.645 0 1.273.1 1.844.312-.165-4.722-4.05-8.5-8.813-8.5zm.063 4.25c-.386.06-.593.265-.656.594l-.626 3.625h.438c1.1 0 1.858-.354 2.219-1.094.247-.516.343-1.109.344-1.78 0-.23-.004-.395-.032-.47-.223-.576-.793-.875-1.687-.875z" style="marker:none" fill="#6e587e" overflow="visible"/><path d="M21.067 1043.95a3.186 3.186 0 1 1-6.372 0 3.186 3.186 0 1 1 6.372 0z" style="marker:none" fill="none" stroke="#6e587e" stroke-width="1.956" overflow="visible"/><rect width="1.852" height="6.021" ry=".926" x="-726.949" y="752.978" transform="rotate(-45)" style="marker:none" fill="#6e587e" overflow="visible"/></g></svg>